<svg id="visual" viewBox="0 0 960 540" width="960" height="540" xmlns="http://www.w3.org/2000/svg" xmlns:xlink="http://www.w3.org/1999/xlink" version="1.1"><path d="M0 66L13.3 59.7C26.7 53.3 53.3 40.7 80 33.5C106.7 26.3 133.3 24.7 160 26.5C186.7 28.3 213.3 33.7 240 32.7C266.7 31.7 293.3 24.3 320 27.8C346.7 31.3 373.3 45.7 400 46.7C426.7 47.7 453.3 35.3 480 29.2C506.7 23 533.3 23 560 23.8C586.7 24.7 613.3 26.3 640 25.3C666.7 24.3 693.3 20.7 720 27C746.7 33.3 773.3 49.7 800 56.8C826.7 64 853.3 62 880 59.3C906.7 56.7 933.3 53.3 946.7 51.7L960 50L960 0L946.7 0C933.3 0 906.7 0 880 0C853.3 0 826.7 0 800 0C773.3 0 746.7 0 720 0C693.3 0 666.7 0 640 0C613.3 0 586.7 0 560 0C533.3 0 506.7 0 480 0C453.3 0 426.7 0 400 0C373.3 0 346.7 0 320 0C293.3 0 266.7 0 240 0C213.3 0 186.7 0 160 0C133.3 0 106.7 0 80 0C53.3 0 26.7 0 13.3 0L0 0Z" fill="#d4ffce"></path><path d="M0 179L13.3 177.2C26.7 175.3 53.3 171.7 80 160.8C106.7 150 133.3 132 160 138.3C186.7 144.7 213.3 175.3 240 182.7C266.7 190 293.3 174 320 158.7C346.7 143.3 373.3 128.7 400 119.7C426.7 110.7 453.3 107.3 480 107.3C506.7 107.3 533.3 110.7 560 108.8C586.7 107 613.3 100 640 108.2C666.7 116.3 693.3 139.7 720 170.2C746.7 200.7 773.3 238.3 800 242.8C826.7 247.3 853.3 218.7 880 206.2C906.7 193.7 933.3 197.3 946.7 199.2L960 201L960 48L946.7 49.7C933.3 51.3 906.7 54.7 880 57.3C853.3 60 826.7 62 800 54.8C773.3 47.7 746.7 31.3 720 25C693.3 18.7 666.7 22.3 640 23.3C613.3 24.3 586.7 22.7 560 21.8C533.3 21 506.7 21 480 27.2C453.3 33.3 426.7 45.7 400 44.7C373.3 43.7 346.7 29.3 320 25.8C293.3 22.3 266.7 29.7 240 30.7C213.3 31.7 186.7 26.3 160 24.5C133.3 22.7 106.7 24.3 80 31.5C53.3 38.7 26.7 51.3 13.3 57.7L0 64Z" fill="#e6ffe2"></path><path d="M0 352L13.3 334.8C26.7 317.7 53.3 283.3 80 276.2C106.7 269 133.3 289 160 288.2C186.7 287.3 213.3 265.7 240 270.2C266.7 274.7 293.3 305.3 320 306.2C346.7 307 373.3 278 400 276.2C426.7 274.3 453.3 299.7 480 305.2C506.7 310.7 533.3 296.3 560 293.7C586.7 291 613.3 300 640 290C666.7 280 693.3 251 720 256.3C746.7 261.7 773.3 301.3 800 304.2C826.7 307 853.3 273 880 262.2C906.7 251.3 933.3 263.7 946.7 269.8L960 276L960 199L946.7 197.2C933.3 195.3 906.7 191.7 880 204.2C853.3 216.7 826.7 245.3 800 240.8C773.3 236.3 746.7 198.7 720 168.2C693.3 137.7 666.7 114.3 640 106.2C613.3 98 586.7 105 560 106.8C533.3 108.7 506.7 105.3 480 105.3C453.3 105.3 426.7 108.7 400 117.7C373.3 126.7 346.7 141.3 320 156.7C293.3 172 266.7 188 240 180.7C213.3 173.3 186.7 142.7 160 136.3C133.3 130 106.7 148 80 158.8C53.3 169.7 26.7 173.3 13.3 175.2L0 177Z" fill="#f1fff0"></path><path d="M0 395L13.3 382.5C26.7 370 53.3 345 80 341.5C106.7 338 133.3 356 160 349.7C186.7 343.3 213.3 312.7 240 310.8C266.7 309 293.3 336 320 335C346.7 334 373.3 305 400 305.8C426.7 306.7 453.3 337.3 480 349.2C506.7 361 533.3 354 560 348.7C586.7 343.3 613.3 339.7 640 327.8C666.7 316 693.3 296 720 299.5C746.7 303 773.3 330 800 330C826.7 330 853.3 303 880 295C906.7 287 933.3 298 946.7 303.5L960 309L960 274L946.7 267.8C933.3 261.7 906.7 249.3 880 260.2C853.3 271 826.7 305 800 302.2C773.3 299.3 746.7 259.7 720 254.3C693.3 249 666.7 278 640 288C613.3 298 586.7 289 560 291.7C533.3 294.3 506.7 308.7 480 303.2C453.3 297.7 426.7 272.3 400 274.2C373.3 276 346.7 305 320 304.2C293.3 303.3 266.7 272.7 240 268.2C213.3 263.7 186.7 285.3 160 286.2C133.3 287 106.7 267 80 274.2C53.3 281.3 26.7 315.7 13.3 332.8L0 350Z" fill="#f4fff3"></path><path d="M0 417L13.3 409.8C26.7 402.7 53.3 388.3 80 391C106.7 393.7 133.3 413.3 160 407.8C186.7 402.3 213.3 371.7 240 361.8C266.7 352 293.3 363 320 359.5C346.7 356 373.3 338 400 341.5C426.7 345 453.3 370 480 383.5C506.7 397 533.3 399 560 391C586.7 383 613.3 365 640 347.8C666.7 330.7 693.3 314.3 720 321.5C746.7 328.7 773.3 359.3 800 359.3C826.7 359.3 853.3 328.7 880 318.7C906.7 308.7 933.3 319.3 946.7 324.7L960 330L960 307L946.7 301.5C933.3 296 906.7 285 880 293C853.3 301 826.7 328 800 328C773.3 328 746.7 301 720 297.5C693.3 294 666.7 314 640 325.8C613.3 337.7 586.7 341.3 560 346.7C533.3 352 506.7 359 480 347.2C453.3 335.3 426.7 304.7 400 303.8C373.3 303 346.7 332 320 333C293.3 334 266.7 307 240 308.8C213.3 310.7 186.7 341.3 160 347.7C133.3 354 106.7 336 80 339.5C53.3 343 26.7 368 13.3 380.5L0 393Z" fill="#f5fff4"></path><path d="M0 428L13.3 424.3C26.7 420.7 53.3 413.3 80 420.5C106.7 427.7 133.3 449.3 160 444.8C186.7 440.3 213.3 409.7 240 394.3C266.7 379 293.3 379 320 375.3C346.7 371.7 373.3 364.3 400 368.8C426.7 373.3 453.3 389.7 480 398.7C506.7 407.7 533.3 409.3 560 400.3C586.7 391.3 613.3 371.7 640 357.3C666.7 343 693.3 334 720 343.8C746.7 353.7 773.3 382.3 800 383.2C826.7 384 853.3 357 880 351.7C906.7 346.3 933.3 362.7 946.7 370.8L960 379L960 328L946.7 322.7C933.3 317.3 906.7 306.7 880 316.7C853.3 326.7 826.7 357.3 800 357.3C773.3 357.3 746.7 326.7 720 319.5C693.3 312.3 666.7 328.7 640 345.8C613.3 363 586.7 381 560 389C533.3 397 506.7 395 480 381.5C453.3 368 426.7 343 400 339.5C373.3 336 346.7 354 320 357.5C293.3 361 266.7 350 240 359.8C213.3 369.7 186.7 400.3 160 405.8C133.3 411.3 106.7 391.7 80 389C53.3 386.3 26.7 400.7 13.3 407.8L0 415Z" fill="#f4fff3"></path><path d="M0 460L13.3 455.5C26.7 451 53.3 442 80 450.2C106.7 458.3 133.3 483.7 160 479.2C186.7 474.7 213.3 440.3 240 426.8C266.7 413.3 293.3 420.7 320 414.3C346.7 408 373.3 388 400 392.5C426.7 397 453.3 426 480 441.3C506.7 456.7 533.3 458.3 560 446.5C586.7 434.7 613.3 409.3 640 395.8C666.7 382.3 693.3 380.7 720 392.5C746.7 404.3 773.3 429.7 800 430.5C826.7 431.3 853.3 407.7 880 403.2C906.7 398.7 933.3 413.3 946.7 420.7L960 428L960 377L946.7 368.8C933.3 360.7 906.7 344.3 880 349.7C853.3 355 826.7 382 800 381.2C773.3 380.3 746.7 351.7 720 341.8C693.3 332 666.7 341 640 355.3C613.3 369.7 586.7 389.3 560 398.3C533.3 407.3 506.7 405.7 480 396.7C453.3 387.7 426.7 371.3 400 366.8C373.3 362.3 346.7 369.7 320 373.3C293.3 377 266.7 377 240 392.3C213.3 407.7 186.7 438.3 160 442.8C133.3 447.3 106.7 425.7 80 418.5C53.3 411.3 26.7 418.7 13.3 422.3L0 426Z" fill="#f1fff0"></path><path d="M0 514L13.3 505C26.7 496 53.3 478 80 480.7C106.7 483.3 133.3 506.7 160 510.3C186.7 514 213.3 498 240 489C266.7 480 293.3 478 320 478.8C346.7 479.7 373.3 483.3 400 489.7C426.7 496 453.3 505 480 505.8C506.7 506.7 533.3 499.3 560 485.8C586.7 472.3 613.3 452.7 640 446.5C666.7 440.3 693.3 447.7 720 461.2C746.7 474.7 773.3 494.3 800 497.8C826.7 501.3 853.3 488.7 880 490.5C906.7 492.3 933.3 508.7 946.7 516.8L960 525L960 426L946.7 418.7C933.3 411.3 906.7 396.7 880 401.2C853.3 405.7 826.7 429.3 800 428.5C773.3 427.7 746.7 402.3 720 390.5C693.3 378.7 666.7 380.3 640 393.8C613.3 407.3 586.7 432.7 560 444.5C533.3 456.3 506.7 454.7 480 439.3C453.3 424 426.7 395 400 390.5C373.3 386 346.7 406 320 412.3C293.3 418.7 266.7 411.3 240 424.8C213.3 438.3 186.7 472.7 160 477.2C133.3 481.7 106.7 456.3 80 448.2C53.3 440 26.7 449 13.3 453.5L0 458Z" fill="#e6ffe2"></path><path d="M0 541L13.3 541C26.7 541 53.3 541 80 541C106.7 541 133.3 541 160 541C186.7 541 213.3 541 240 541C266.7 541 293.3 541 320 541C346.7 541 373.3 541 400 541C426.7 541 453.3 541 480 541C506.7 541 533.3 541 560 541C586.7 541 613.3 541 640 541C666.7 541 693.3 541 720 541C746.7 541 773.3 541 800 541C826.7 541 853.3 541 880 541C906.7 541 933.3 541 946.7 541L960 541L960 523L946.7 514.8C933.3 506.7 906.7 490.3 880 488.5C853.3 486.7 826.7 499.3 800 495.8C773.3 492.3 746.7 472.7 720 459.2C693.3 445.7 666.7 438.3 640 444.5C613.3 450.7 586.7 470.3 560 483.8C533.3 497.3 506.7 504.7 480 503.8C453.3 503 426.7 494 400 487.7C373.3 481.3 346.7 477.7 320 476.8C293.3 476 266.7 478 240 487C213.3 496 186.7 512 160 508.3C133.3 504.7 106.7 481.3 80 478.7C53.3 476 26.7 494 13.3 503L0 512Z" fill="#d4ffce"></path></svg>